<svg xmlns="http://www.w3.org/2000/svg" width="32" height="32" viewBox="0 0 24 24" fill="none" stroke="#2D5016" stroke-width="2" stroke-linecap="round" stroke-linejoin="round">
  <path d="M4 16v-2.38C4 11.5 2.97 10.5 3 8c.03-2.72 1.49-6 4.5-6C9.37 2 11 3.8 11 8c0 2.25 1.25 2.25 1.25 5 .5 2.75-1.5 5.5-3.25 5.5S6.25 16.5 6 15c-1 1-1.25 2-1.25 3.5 0 2.25 2 2.5 3.25 2.5 2.25 0 5-1.25 7-3.5"/>
  <path d="M14 15c0 1.5 2 2.5 3.5 2.5 2.25 0 4.5-1.5 4.5-3.5 0-1.5-1-2.5-2.5-3-1.5-.5-2-1.5-2-2.5 0-1.5 1-2.5 2-3.5.75-.75 1.5-2 1.5-3.5 0-2.25-1.75-4-4-4-2.5 0-4 1.5-4 4 0 2 1 3 2 4 .75.75 1.25 1.75 1.25 3 0 1.25-1.25 2.25-2.25 6.5"/>
</svg>